<mxfile host="app.diagrams.net" agent="Mozilla/5.0 (Windows NT 10.0; Win64; x64) AppleWebKit/537.36 (KHTML, like Gecko) Chrome/132.0.0.0 Safari/537.36" version="26.0.11">
  <diagram name="Página-1" id="ME8Eeor8lZUrgds1Fa1e">
    <mxGraphModel dx="954" dy="566" grid="1" gridSize="10" guides="1" tooltips="1" connect="1" arrows="1" fold="1" page="1" pageScale="1" pageWidth="827" pageHeight="1169" math="0" shadow="0">
      <root>
        <mxCell id="0" />
        <mxCell id="1" parent="0" />
        <mxCell id="QQ_587JNlkNqWdxAlMka-1" value="" style="rounded=0;whiteSpace=wrap;html=1;" vertex="1" parent="1">
          <mxGeometry x="130" y="120" width="10" height="330" as="geometry" />
        </mxCell>
        <mxCell id="QQ_587JNlkNqWdxAlMka-3" value="Professor" style="rounded=0;whiteSpace=wrap;html=1;" vertex="1" parent="1">
          <mxGeometry x="90" y="50" width="90" height="40" as="geometry" />
        </mxCell>
        <mxCell id="QQ_587JNlkNqWdxAlMka-4" value="Interface" style="rounded=0;whiteSpace=wrap;html=1;" vertex="1" parent="1">
          <mxGeometry x="330" y="50" width="90" height="40" as="geometry" />
        </mxCell>
        <mxCell id="QQ_587JNlkNqWdxAlMka-5" value="Geração" style="rounded=0;whiteSpace=wrap;html=1;" vertex="1" parent="1">
          <mxGeometry x="710" y="50" width="90" height="40" as="geometry" />
        </mxCell>
        <mxCell id="QQ_587JNlkNqWdxAlMka-7" value="1: logar()" style="text;html=1;align=center;verticalAlign=middle;whiteSpace=wrap;rounded=0;" vertex="1" parent="1">
          <mxGeometry x="210" y="90" width="60" height="30" as="geometry" />
        </mxCell>
        <mxCell id="QQ_587JNlkNqWdxAlMka-8" value="" style="endArrow=classic;html=1;rounded=0;exitX=1;exitY=0;exitDx=0;exitDy=0;entryX=0;entryY=0;entryDx=0;entryDy=0;" edge="1" parent="1" source="QQ_587JNlkNqWdxAlMka-1" target="QQ_587JNlkNqWdxAlMka-9">
          <mxGeometry width="50" height="50" relative="1" as="geometry">
            <mxPoint x="200" y="210" as="sourcePoint" />
            <mxPoint x="330" y="120" as="targetPoint" />
          </mxGeometry>
        </mxCell>
        <mxCell id="QQ_587JNlkNqWdxAlMka-9" value="" style="rounded=0;whiteSpace=wrap;html=1;" vertex="1" parent="1">
          <mxGeometry x="370" y="120" width="10" height="30" as="geometry" />
        </mxCell>
        <mxCell id="QQ_587JNlkNqWdxAlMka-10" value="Sistema" style="rounded=0;whiteSpace=wrap;html=1;" vertex="1" parent="1">
          <mxGeometry x="520" y="50" width="90" height="40" as="geometry" />
        </mxCell>
        <mxCell id="QQ_587JNlkNqWdxAlMka-12" value="" style="rounded=0;whiteSpace=wrap;html=1;" vertex="1" parent="1">
          <mxGeometry x="560" y="120" width="10" height="30" as="geometry" />
        </mxCell>
        <mxCell id="QQ_587JNlkNqWdxAlMka-14" value="" style="endArrow=classic;html=1;rounded=0;exitX=1;exitY=0;exitDx=0;exitDy=0;entryX=0;entryY=0;entryDx=0;entryDy=0;" edge="1" parent="1" source="QQ_587JNlkNqWdxAlMka-9" target="QQ_587JNlkNqWdxAlMka-12">
          <mxGeometry width="50" height="50" relative="1" as="geometry">
            <mxPoint x="150" y="130" as="sourcePoint" />
            <mxPoint x="380" y="130" as="targetPoint" />
          </mxGeometry>
        </mxCell>
        <mxCell id="QQ_587JNlkNqWdxAlMka-15" value="1.1: verificarLogin()" style="text;html=1;align=center;verticalAlign=middle;whiteSpace=wrap;rounded=0;" vertex="1" parent="1">
          <mxGeometry x="440" y="90" width="60" height="30" as="geometry" />
        </mxCell>
        <mxCell id="QQ_587JNlkNqWdxAlMka-16" value="" style="endArrow=open;html=1;rounded=0;entryX=1;entryY=1;entryDx=0;entryDy=0;exitX=0;exitY=1;exitDx=0;exitDy=0;dashed=1;dashPattern=8 8;endFill=0;" edge="1" parent="1" source="QQ_587JNlkNqWdxAlMka-12" target="QQ_587JNlkNqWdxAlMka-9">
          <mxGeometry width="50" height="50" relative="1" as="geometry">
            <mxPoint x="440" y="260" as="sourcePoint" />
            <mxPoint x="490" y="210" as="targetPoint" />
          </mxGeometry>
        </mxCell>
        <mxCell id="QQ_587JNlkNqWdxAlMka-17" value="Login Válido" style="text;html=1;align=center;verticalAlign=middle;whiteSpace=wrap;rounded=0;" vertex="1" parent="1">
          <mxGeometry x="424" y="127" width="90" height="30" as="geometry" />
        </mxCell>
        <mxCell id="QQ_587JNlkNqWdxAlMka-18" style="edgeStyle=orthogonalEdgeStyle;rounded=0;orthogonalLoop=1;jettySize=auto;html=1;exitX=0.5;exitY=1;exitDx=0;exitDy=0;" edge="1" parent="1" source="QQ_587JNlkNqWdxAlMka-17" target="QQ_587JNlkNqWdxAlMka-17">
          <mxGeometry relative="1" as="geometry" />
        </mxCell>
        <mxCell id="QQ_587JNlkNqWdxAlMka-19" value="" style="rounded=0;whiteSpace=wrap;html=1;" vertex="1" parent="1">
          <mxGeometry x="370" y="195" width="10" height="50" as="geometry" />
        </mxCell>
        <mxCell id="QQ_587JNlkNqWdxAlMka-20" value="" style="endArrow=open;html=1;rounded=0;exitX=0;exitY=1;exitDx=0;exitDy=0;dashed=1;dashPattern=8 8;endFill=0;" edge="1" parent="1" source="QQ_587JNlkNqWdxAlMka-9">
          <mxGeometry width="50" height="50" relative="1" as="geometry">
            <mxPoint x="570" y="160" as="sourcePoint" />
            <mxPoint x="140" y="150" as="targetPoint" />
          </mxGeometry>
        </mxCell>
        <mxCell id="QQ_587JNlkNqWdxAlMka-21" value="Acesso Liberado" style="text;html=1;align=center;verticalAlign=middle;whiteSpace=wrap;rounded=0;" vertex="1" parent="1">
          <mxGeometry x="190" y="127" width="110" height="30" as="geometry" />
        </mxCell>
        <mxCell id="QQ_587JNlkNqWdxAlMka-23" value="" style="endArrow=classic;html=1;rounded=0;entryX=0;entryY=0;entryDx=0;entryDy=0;exitX=1;exitY=0.227;exitDx=0;exitDy=0;exitPerimeter=0;" edge="1" parent="1" source="QQ_587JNlkNqWdxAlMka-1" target="QQ_587JNlkNqWdxAlMka-19">
          <mxGeometry width="50" height="50" relative="1" as="geometry">
            <mxPoint x="140" y="181" as="sourcePoint" />
            <mxPoint x="380" y="130" as="targetPoint" />
          </mxGeometry>
        </mxCell>
        <mxCell id="QQ_587JNlkNqWdxAlMka-25" value="2: lancarNotas()" style="text;html=1;align=center;verticalAlign=middle;whiteSpace=wrap;rounded=0;" vertex="1" parent="1">
          <mxGeometry x="192" y="171" width="105" height="30" as="geometry" />
        </mxCell>
        <mxCell id="QQ_587JNlkNqWdxAlMka-26" value="" style="rounded=0;whiteSpace=wrap;html=1;" vertex="1" parent="1">
          <mxGeometry x="560" y="195" width="10" height="50" as="geometry" />
        </mxCell>
        <mxCell id="QQ_587JNlkNqWdxAlMka-27" value="" style="endArrow=classic;html=1;rounded=0;exitX=0.5;exitY=0;exitDx=0;exitDy=0;entryX=0;entryY=0;entryDx=0;entryDy=0;" edge="1" parent="1" source="QQ_587JNlkNqWdxAlMka-19" target="QQ_587JNlkNqWdxAlMka-26">
          <mxGeometry width="50" height="50" relative="1" as="geometry">
            <mxPoint x="390" y="130" as="sourcePoint" />
            <mxPoint x="570" y="130" as="targetPoint" />
          </mxGeometry>
        </mxCell>
        <mxCell id="QQ_587JNlkNqWdxAlMka-28" value="2.1: guardarDados()" style="text;html=1;align=center;verticalAlign=middle;whiteSpace=wrap;rounded=0;" vertex="1" parent="1">
          <mxGeometry x="410.5" y="171" width="123.5" height="30" as="geometry" />
        </mxCell>
        <mxCell id="QQ_587JNlkNqWdxAlMka-31" value="" style="endArrow=open;html=1;rounded=0;entryX=1;entryY=1;entryDx=0;entryDy=0;exitX=0;exitY=1;exitDx=0;exitDy=0;dashed=1;dashPattern=8 8;endFill=0;" edge="1" parent="1" source="QQ_587JNlkNqWdxAlMka-26" target="QQ_587JNlkNqWdxAlMka-19">
          <mxGeometry width="50" height="50" relative="1" as="geometry">
            <mxPoint x="570" y="160" as="sourcePoint" />
            <mxPoint x="390" y="160" as="targetPoint" />
          </mxGeometry>
        </mxCell>
        <mxCell id="QQ_587JNlkNqWdxAlMka-32" value="Armazenado com Sucesso" style="text;html=1;align=center;verticalAlign=middle;whiteSpace=wrap;rounded=0;" vertex="1" parent="1">
          <mxGeometry x="428" y="214" width="90" height="30" as="geometry" />
        </mxCell>
        <mxCell id="QQ_587JNlkNqWdxAlMka-33" value="" style="endArrow=open;html=1;rounded=0;exitX=0;exitY=1;exitDx=0;exitDy=0;dashed=1;dashPattern=8 8;endFill=0;" edge="1" parent="1" source="QQ_587JNlkNqWdxAlMka-19">
          <mxGeometry width="50" height="50" relative="1" as="geometry">
            <mxPoint x="570" y="255" as="sourcePoint" />
            <mxPoint x="140" y="245" as="targetPoint" />
          </mxGeometry>
        </mxCell>
        <mxCell id="QQ_587JNlkNqWdxAlMka-34" value="Mensagem de Sucesso" style="text;html=1;align=center;verticalAlign=middle;whiteSpace=wrap;rounded=0;" vertex="1" parent="1">
          <mxGeometry x="210" y="213" width="90" height="30" as="geometry" />
        </mxCell>
        <mxCell id="QQ_587JNlkNqWdxAlMka-35" value="" style="endArrow=classic;html=1;rounded=0;entryX=0;entryY=0;entryDx=0;entryDy=0;" edge="1" parent="1" target="QQ_587JNlkNqWdxAlMka-36">
          <mxGeometry width="50" height="50" relative="1" as="geometry">
            <mxPoint x="140" y="290" as="sourcePoint" />
            <mxPoint x="340" y="300" as="targetPoint" />
          </mxGeometry>
        </mxCell>
        <mxCell id="QQ_587JNlkNqWdxAlMka-36" value="" style="rounded=0;whiteSpace=wrap;html=1;" vertex="1" parent="1">
          <mxGeometry x="370" y="291" width="10" height="50" as="geometry" />
        </mxCell>
        <mxCell id="QQ_587JNlkNqWdxAlMka-37" value="3: lancarFrequencias()" style="text;html=1;align=center;verticalAlign=middle;whiteSpace=wrap;rounded=0;" vertex="1" parent="1">
          <mxGeometry x="190.5" y="266" width="125" height="30" as="geometry" />
        </mxCell>
        <mxCell id="QQ_587JNlkNqWdxAlMka-38" value="" style="rounded=0;whiteSpace=wrap;html=1;" vertex="1" parent="1">
          <mxGeometry x="560" y="291" width="10" height="50" as="geometry" />
        </mxCell>
        <mxCell id="QQ_587JNlkNqWdxAlMka-39" value="" style="endArrow=classic;html=1;rounded=0;exitX=1;exitY=0;exitDx=0;exitDy=0;entryX=0;entryY=0;entryDx=0;entryDy=0;" edge="1" parent="1" source="QQ_587JNlkNqWdxAlMka-36" target="QQ_587JNlkNqWdxAlMka-38">
          <mxGeometry width="50" height="50" relative="1" as="geometry">
            <mxPoint x="385" y="205" as="sourcePoint" />
            <mxPoint x="570" y="205" as="targetPoint" />
          </mxGeometry>
        </mxCell>
        <mxCell id="QQ_587JNlkNqWdxAlMka-40" value="3.1: guardarDados()" style="text;html=1;align=center;verticalAlign=middle;whiteSpace=wrap;rounded=0;" vertex="1" parent="1">
          <mxGeometry x="408.5" y="268" width="123.5" height="30" as="geometry" />
        </mxCell>
        <mxCell id="QQ_587JNlkNqWdxAlMka-41" value="Armazenado com Sucesso" style="text;html=1;align=center;verticalAlign=middle;whiteSpace=wrap;rounded=0;" vertex="1" parent="1">
          <mxGeometry x="425" y="308" width="90" height="30" as="geometry" />
        </mxCell>
        <mxCell id="QQ_587JNlkNqWdxAlMka-42" value="" style="endArrow=open;html=1;rounded=0;entryX=1;entryY=1;entryDx=0;entryDy=0;dashed=1;dashPattern=8 8;endFill=0;exitX=0;exitY=1;exitDx=0;exitDy=0;" edge="1" parent="1" source="QQ_587JNlkNqWdxAlMka-38" target="QQ_587JNlkNqWdxAlMka-36">
          <mxGeometry width="50" height="50" relative="1" as="geometry">
            <mxPoint x="510" y="370" as="sourcePoint" />
            <mxPoint x="400" y="341" as="targetPoint" />
          </mxGeometry>
        </mxCell>
        <mxCell id="QQ_587JNlkNqWdxAlMka-43" value="" style="endArrow=open;html=1;rounded=0;dashed=1;dashPattern=8 8;endFill=0;" edge="1" parent="1">
          <mxGeometry width="50" height="50" relative="1" as="geometry">
            <mxPoint x="370" y="340" as="sourcePoint" />
            <mxPoint x="140" y="340" as="targetPoint" />
          </mxGeometry>
        </mxCell>
        <mxCell id="QQ_587JNlkNqWdxAlMka-44" value="Mensagem de Sucesso" style="text;html=1;align=center;verticalAlign=middle;whiteSpace=wrap;rounded=0;" vertex="1" parent="1">
          <mxGeometry x="207" y="308" width="90" height="30" as="geometry" />
        </mxCell>
        <mxCell id="QQ_587JNlkNqWdxAlMka-49" value="" style="rounded=0;whiteSpace=wrap;html=1;" vertex="1" parent="1">
          <mxGeometry x="370" y="400" width="10" height="50" as="geometry" />
        </mxCell>
        <mxCell id="QQ_587JNlkNqWdxAlMka-51" value="" style="endArrow=classic;html=1;rounded=0;exitX=1;exitY=0.25;exitDx=0;exitDy=0;entryX=0;entryY=0;entryDx=0;entryDy=0;" edge="1" parent="1" target="QQ_587JNlkNqWdxAlMka-49">
          <mxGeometry width="50" height="50" relative="1" as="geometry">
            <mxPoint x="140" y="400" as="sourcePoint" />
            <mxPoint x="370" y="400" as="targetPoint" />
          </mxGeometry>
        </mxCell>
        <mxCell id="QQ_587JNlkNqWdxAlMka-55" value="4: gerarCompFreq()" style="text;html=1;align=center;verticalAlign=middle;whiteSpace=wrap;rounded=0;" vertex="1" parent="1">
          <mxGeometry x="195.5" y="375" width="120" height="30" as="geometry" />
        </mxCell>
        <mxCell id="QQ_587JNlkNqWdxAlMka-56" value="" style="rounded=0;whiteSpace=wrap;html=1;" vertex="1" parent="1">
          <mxGeometry x="560" y="400" width="10" height="50" as="geometry" />
        </mxCell>
        <mxCell id="QQ_587JNlkNqWdxAlMka-57" value="" style="endArrow=classic;html=1;rounded=0;exitX=1;exitY=0;exitDx=0;exitDy=0;entryX=0;entryY=0;entryDx=0;entryDy=0;" edge="1" parent="1" source="QQ_587JNlkNqWdxAlMka-49" target="QQ_587JNlkNqWdxAlMka-56">
          <mxGeometry width="50" height="50" relative="1" as="geometry">
            <mxPoint x="390" y="301" as="sourcePoint" />
            <mxPoint x="570" y="301" as="targetPoint" />
          </mxGeometry>
        </mxCell>
        <mxCell id="QQ_587JNlkNqWdxAlMka-58" value="4.1: acessarDados()" style="text;html=1;align=center;verticalAlign=middle;whiteSpace=wrap;rounded=0;" vertex="1" parent="1">
          <mxGeometry x="407.25" y="376" width="123.5" height="30" as="geometry" />
        </mxCell>
        <mxCell id="QQ_587JNlkNqWdxAlMka-59" value="" style="rounded=0;whiteSpace=wrap;html=1;" vertex="1" parent="1">
          <mxGeometry x="750" y="400" width="10" height="50" as="geometry" />
        </mxCell>
        <mxCell id="QQ_587JNlkNqWdxAlMka-60" value="" style="endArrow=classic;html=1;rounded=0;entryX=0;entryY=0;entryDx=0;entryDy=0;exitX=1;exitY=0;exitDx=0;exitDy=0;" edge="1" parent="1" source="QQ_587JNlkNqWdxAlMka-56" target="QQ_587JNlkNqWdxAlMka-59">
          <mxGeometry width="50" height="50" relative="1" as="geometry">
            <mxPoint x="680" y="410" as="sourcePoint" />
            <mxPoint x="570" y="410" as="targetPoint" />
          </mxGeometry>
        </mxCell>
        <mxCell id="QQ_587JNlkNqWdxAlMka-61" value="4.2: gerarComprovante()" style="text;html=1;align=center;verticalAlign=middle;whiteSpace=wrap;rounded=0;" vertex="1" parent="1">
          <mxGeometry x="586.5" y="376" width="153.5" height="30" as="geometry" />
        </mxCell>
        <mxCell id="QQ_587JNlkNqWdxAlMka-62" value="" style="endArrow=open;html=1;rounded=0;dashed=1;dashPattern=8 8;endFill=0;exitX=0;exitY=1;exitDx=0;exitDy=0;entryX=0.5;entryY=1;entryDx=0;entryDy=0;" edge="1" parent="1" source="QQ_587JNlkNqWdxAlMka-59" target="QQ_587JNlkNqWdxAlMka-1">
          <mxGeometry width="50" height="50" relative="1" as="geometry">
            <mxPoint x="570" y="351" as="sourcePoint" />
            <mxPoint x="150" y="450" as="targetPoint" />
          </mxGeometry>
        </mxCell>
        <mxCell id="QQ_587JNlkNqWdxAlMka-63" value="Retorna Documento" style="text;html=1;align=center;verticalAlign=middle;whiteSpace=wrap;rounded=0;" vertex="1" parent="1">
          <mxGeometry x="386" y="456" width="166" height="30" as="geometry" />
        </mxCell>
        <mxCell id="QQ_587JNlkNqWdxAlMka-64" value="" style="endArrow=none;html=1;rounded=0;entryX=0.5;entryY=1;entryDx=0;entryDy=0;exitX=0.5;exitY=0;exitDx=0;exitDy=0;dashed=1;dashPattern=8 8;" edge="1" parent="1" source="QQ_587JNlkNqWdxAlMka-59" target="QQ_587JNlkNqWdxAlMka-5">
          <mxGeometry width="50" height="50" relative="1" as="geometry">
            <mxPoint x="30" y="470" as="sourcePoint" />
            <mxPoint x="80" y="380" as="targetPoint" />
          </mxGeometry>
        </mxCell>
        <mxCell id="QQ_587JNlkNqWdxAlMka-65" value="" style="endArrow=none;html=1;rounded=0;entryX=0.5;entryY=1;entryDx=0;entryDy=0;exitX=0.5;exitY=0;exitDx=0;exitDy=0;dashed=1;dashPattern=8 8;" edge="1" parent="1" source="QQ_587JNlkNqWdxAlMka-12" target="QQ_587JNlkNqWdxAlMka-10">
          <mxGeometry width="50" height="50" relative="1" as="geometry">
            <mxPoint x="765" y="410" as="sourcePoint" />
            <mxPoint x="765" y="100" as="targetPoint" />
          </mxGeometry>
        </mxCell>
        <mxCell id="QQ_587JNlkNqWdxAlMka-66" value="" style="endArrow=none;html=1;rounded=0;entryX=0.5;entryY=1;entryDx=0;entryDy=0;exitX=0.5;exitY=0;exitDx=0;exitDy=0;dashed=1;dashPattern=8 8;" edge="1" parent="1" source="QQ_587JNlkNqWdxAlMka-26" target="QQ_587JNlkNqWdxAlMka-12">
          <mxGeometry width="50" height="50" relative="1" as="geometry">
            <mxPoint x="575" y="130" as="sourcePoint" />
            <mxPoint x="575" y="100" as="targetPoint" />
          </mxGeometry>
        </mxCell>
        <mxCell id="QQ_587JNlkNqWdxAlMka-67" value="" style="endArrow=none;html=1;rounded=0;entryX=0.5;entryY=1;entryDx=0;entryDy=0;exitX=0.5;exitY=0;exitDx=0;exitDy=0;dashed=1;dashPattern=8 8;" edge="1" parent="1" source="QQ_587JNlkNqWdxAlMka-38" target="QQ_587JNlkNqWdxAlMka-26">
          <mxGeometry width="50" height="50" relative="1" as="geometry">
            <mxPoint x="575" y="205" as="sourcePoint" />
            <mxPoint x="575" y="160" as="targetPoint" />
          </mxGeometry>
        </mxCell>
        <mxCell id="QQ_587JNlkNqWdxAlMka-68" value="" style="endArrow=none;html=1;rounded=0;entryX=0.5;entryY=1;entryDx=0;entryDy=0;exitX=0.5;exitY=0;exitDx=0;exitDy=0;dashed=1;dashPattern=8 8;" edge="1" parent="1" source="QQ_587JNlkNqWdxAlMka-56" target="QQ_587JNlkNqWdxAlMka-38">
          <mxGeometry width="50" height="50" relative="1" as="geometry">
            <mxPoint x="575" y="301" as="sourcePoint" />
            <mxPoint x="575" y="255" as="targetPoint" />
          </mxGeometry>
        </mxCell>
        <mxCell id="QQ_587JNlkNqWdxAlMka-69" value="" style="endArrow=none;html=1;rounded=0;entryX=0.5;entryY=1;entryDx=0;entryDy=0;exitX=0.5;exitY=0;exitDx=0;exitDy=0;dashed=1;dashPattern=8 8;" edge="1" parent="1" source="QQ_587JNlkNqWdxAlMka-9" target="QQ_587JNlkNqWdxAlMka-4">
          <mxGeometry width="50" height="50" relative="1" as="geometry">
            <mxPoint x="575" y="130" as="sourcePoint" />
            <mxPoint x="575" y="100" as="targetPoint" />
          </mxGeometry>
        </mxCell>
        <mxCell id="QQ_587JNlkNqWdxAlMka-70" value="" style="endArrow=none;html=1;rounded=0;entryX=0.5;entryY=1;entryDx=0;entryDy=0;exitX=0.5;exitY=0;exitDx=0;exitDy=0;dashed=1;dashPattern=8 8;" edge="1" parent="1" source="QQ_587JNlkNqWdxAlMka-19" target="QQ_587JNlkNqWdxAlMka-9">
          <mxGeometry width="50" height="50" relative="1" as="geometry">
            <mxPoint x="385" y="130" as="sourcePoint" />
            <mxPoint x="385" y="100" as="targetPoint" />
          </mxGeometry>
        </mxCell>
        <mxCell id="QQ_587JNlkNqWdxAlMka-71" value="" style="endArrow=none;html=1;rounded=0;exitX=0.5;exitY=0;exitDx=0;exitDy=0;dashed=1;dashPattern=8 8;entryX=0.5;entryY=1;entryDx=0;entryDy=0;" edge="1" parent="1" source="QQ_587JNlkNqWdxAlMka-36" target="QQ_587JNlkNqWdxAlMka-19">
          <mxGeometry width="50" height="50" relative="1" as="geometry">
            <mxPoint x="385" y="205" as="sourcePoint" />
            <mxPoint x="375" y="250" as="targetPoint" />
          </mxGeometry>
        </mxCell>
        <mxCell id="QQ_587JNlkNqWdxAlMka-72" value="" style="endArrow=none;html=1;rounded=0;exitX=0.5;exitY=0;exitDx=0;exitDy=0;dashed=1;dashPattern=8 8;entryX=0.5;entryY=1;entryDx=0;entryDy=0;" edge="1" parent="1" source="QQ_587JNlkNqWdxAlMka-49" target="QQ_587JNlkNqWdxAlMka-36">
          <mxGeometry width="50" height="50" relative="1" as="geometry">
            <mxPoint x="385" y="301" as="sourcePoint" />
            <mxPoint x="400" y="360" as="targetPoint" />
          </mxGeometry>
        </mxCell>
        <mxCell id="QQ_587JNlkNqWdxAlMka-73" value="" style="endArrow=none;html=1;rounded=0;exitX=0.5;exitY=0;exitDx=0;exitDy=0;dashed=1;dashPattern=8 8;entryX=0.5;entryY=1;entryDx=0;entryDy=0;" edge="1" parent="1" source="QQ_587JNlkNqWdxAlMka-1" target="QQ_587JNlkNqWdxAlMka-3">
          <mxGeometry width="50" height="50" relative="1" as="geometry">
            <mxPoint x="385" y="410" as="sourcePoint" />
            <mxPoint x="385" y="351" as="targetPoint" />
          </mxGeometry>
        </mxCell>
      </root>
    </mxGraphModel>
  </diagram>
</mxfile>
